<svg xmlns="http://www.w3.org/2000/svg" width="160" height="104" viewBox="0 0 160 104">
  <g fill="#888888" fill-rule="evenodd" transform="translate(-4)">
    <path d="M4.4305,94 L6.5395,94 L6.5395,77.831 C6.5395,75.13 6.3545,72.614 6.2435,70.024 L6.4285,70.024 L9.4625,75.426 L20.4515,94 L22.7455,94 L22.7455,67.027 L20.6365,67.027 L20.6365,83.011 C20.6365,85.638 20.7845,88.339 20.9325,91.003 L20.7475,91.003 L17.7505,85.564 L6.7245,67.027 L4.4305,67.027 L4.4305,94 Z M40.0615,94.481 C33.5495,94.481 28.8875,89.005 28.8875,80.421 C28.8875,71.874 33.5495,66.546 40.0615,66.546 C46.6475,66.546 51.2725,71.874 51.2725,80.421 C51.2725,89.005 46.6475,94.481 40.0615,94.481 Z M40.0615,92.483 C45.4265,92.483 48.9785,87.747 48.9785,80.421 C48.9785,73.095 45.4265,68.544 40.0615,68.544 C34.7335,68.544 31.2185,73.095 31.2185,80.421 C31.2185,87.747 34.7335,92.483 40.0615,92.483 Z M65.6655,94 L67.8855,94 L67.8855,67.027 L65.6655,67.027 L65.6655,94 Z M75.5075,94 L77.6535,94 L77.6535,79.237 C79.7255,76.869 81.6125,75.685 83.3515,75.685 C86.2745,75.685 87.6065,77.572 87.6065,81.679 L87.6065,94 L89.7525,94 L89.7525,79.237 C91.8615,76.869 93.6745,75.685 95.4505,75.685 C98.3365,75.685 99.7055,77.572 99.7055,81.679 L99.7055,94 L101.8515,94 L101.8515,81.383 C101.8515,76.314 99.8905,73.761 95.9315,73.761 C93.6375,73.761 91.4915,75.352 89.2715,77.757 C88.5685,75.352 86.9775,73.761 83.8325,73.761 C81.6125,73.761 79.3925,75.315 77.6165,77.276 L77.5425,77.276 L77.2835,74.279 L75.5075,74.279 L75.5075,94 Z M113.3215,94.481 C110.1395,94.481 107.5865,92.705 107.5865,89.042 C107.5865,84.676 111.4715,82.604 120.1665,81.605 C120.2405,78.682 119.3895,75.648 115.6525,75.648 C113.0625,75.648 110.8055,76.869 109.4365,77.905 L108.4745,76.351 C109.9915,75.315 112.7295,73.761 115.9485,73.761 C120.6475,73.761 122.3125,77.128 122.3125,81.494 L122.3125,94 L120.4995,94 L120.2775,91.484 L120.2035,91.484 C118.2055,93.112 115.8375,94.481 113.3215,94.481 Z M113.7655,92.668 C115.9485,92.668 117.8355,91.632 120.1665,89.597 L120.1665,83.196 C112.3965,84.084 109.7325,85.897 109.7325,88.931 C109.7325,91.632 111.5825,92.668 113.7655,92.668 Z M135.6695,103.398 C130.7485,103.398 127.5295,101.326 127.5295,97.996 C127.5295,96.257 128.6765,94.518 130.4895,93.297 L130.4895,93.112 C129.4905,92.52 128.7135,91.484 128.7135,89.93 C128.7135,88.228 130.0085,86.933 130.8965,86.267 L130.8965,86.119 C129.6385,85.083 128.3805,83.122 128.3805,80.754 C128.3805,76.647 131.5625,73.761 135.4475,73.761 C136.5205,73.761 137.4455,74.02 138.0745,74.279 L144.8085,74.279 L144.8085,76.055 L140.3685,76.055 C141.5525,77.091 142.4035,78.793 142.4035,80.791 C142.4035,84.861 139.3325,87.747 135.4475,87.747 C134.3745,87.747 133.1535,87.451 132.2655,86.933 C131.4145,87.599 130.7115,88.413 130.7115,89.671 C130.7115,91.077 131.5625,92.15 134.4115,92.15 L138.5555,92.15 C143.0325,92.15 145.1415,93.556 145.1415,96.701 C145.1415,100.142 141.4415,103.398 135.6695,103.398 Z M135.4475,86.119 C138.0375,86.119 140.3315,83.973 140.3315,80.754 C140.3315,77.498 138.1115,75.5 135.4475,75.5 C132.7465,75.5 130.5265,77.498 130.5265,80.754 C130.5265,83.973 132.8205,86.119 135.4475,86.119 Z M135.9285,101.77 C140.2205,101.77 142.9955,99.365 142.9955,96.997 C142.9955,94.888 141.4415,94.111 138.5185,94.111 L134.4855,94.111 C134.0415,94.111 133.0055,94 132.0065,93.778 C130.3045,94.962 129.5645,96.405 129.5645,97.737 C129.5645,100.142 131.8955,101.77 135.9285,101.77 Z M156.8335,94.481 C151.7645,94.481 147.6575,90.633 147.6575,84.158 C147.6575,77.757 151.8385,73.761 156.3155,73.761 C161.0885,73.761 163.9375,77.165 163.9375,82.937 C163.9375,83.492 163.9005,84.01 163.8265,84.491 L149.8405,84.491 C149.9515,89.301 152.8005,92.668 157.0555,92.668 C159.1645,92.668 160.8295,92.002 162.3095,90.966 L163.1235,92.557 C161.5325,93.556 159.6825,94.481 156.8335,94.481 Z M149.8405,82.789 L161.9765,82.789 C161.9765,78.016 159.7935,75.611 156.3525,75.611 C153.1335,75.611 150.2475,78.275 149.8405,82.789 Z"/>
    <g fill-rule="nonzero" transform="translate(54)">
      <path d="M57,0 L1,0 C0.448,0 0,0.447 0,1 L0,45 C0,45.553 0.448,46 1,46 L57,46 C57.552,46 58,45.553 58,45 L58,1 C58,0.447 57.552,0 57,0 Z M56,44 L2,44 L2,2 L56,2 L56,44 Z"/>
      <path d="M16 22.138C19.071 22.138 21.569 19.64 21.569 16.57 21.569 13.498 19.071 11 16 11 12.929 11 10.431 13.498 10.431 16.569 10.431 19.64 12.929 22.138 16 22.138zM16 13C17.968 13 19.569 14.602 19.569 16.569 19.569 18.536 17.968 20.138 16 20.138 14.032 20.138 12.431 18.537 12.431 16.57 12.431 14.603 14.032 13 16 13zM7 40C7.234 40 7.47 39.918 7.66 39.751L23.973 25.389 34.275 35.69C34.666 36.081 35.298 36.081 35.689 35.69 36.08 35.299 36.08 34.667 35.689 34.276L30.882 29.469 40.063 19.415 51.324 29.738C51.731 30.111 52.364 30.083 52.737 29.676 53.11 29.269 53.083 28.636 52.675 28.263L40.675 17.263C40.479 17.084 40.218 16.995 39.955 17.001 39.69 17.013 39.44 17.13 39.261 17.326L29.467 28.053 24.724 23.31C24.35 22.937 23.752 22.918 23.356 23.266L6.339 38.249C5.924 38.614 5.884 39.246 6.249 39.661 6.447 39.886 6.723 40 7 40z"/>
    </g>
  </g>
</svg>
